<svg width="17" height="16" viewBox="0 0 17 16" fill="none" xmlns="http://www.w3.org/2000/svg">
<path d="M14 4.5L2.875 15.625C2.64583 15.8542 2.35417 15.9688 2 15.9688C1.64583 15.9688 1.35417 15.8542 1.125 15.625C0.895833 15.3958 0.78125 15.1042 0.78125 14.75C0.78125 14.3958 0.895833 14.1042 1.125 13.875L12.25 2.75H2.75C2.39583 2.75 2.09917 2.63 1.86 2.39C1.62083 2.15 1.50083 1.85333 1.5 1.5C1.49917 1.14667 1.61917 0.85 1.86 0.61C2.10083 0.37 2.3975 0.25 2.75 0.25H15.25C15.6042 0.25 15.9012 0.37 16.1412 0.61C16.3812 0.85 16.5008 1.14667 16.5 1.5V14C16.5 14.3542 16.38 14.6512 16.14 14.8912C15.9 15.1312 15.6033 15.2508 15.25 15.25C14.8967 15.2492 14.6 15.1292 14.36 14.89C14.12 14.6508 14 14.3542 14 14V4.5Z" fill="#F5F5F5"/>
</svg>
